<svg width="85" height="85" xmlns="http://www.w3.org/2000/svg"><path fill="#B2B2B2" d="M42.5 84.5c23.176 0 42-18.824 42-42h-1c0 22.624-18.376 41-41 41v1zm42-42c0-23.176-18.824-42-42-42v1c22.624 0 41 18.376 41 41h1zm-42-42C19.324.5.5 19.324.5 42.5h1c0-22.624 18.376-41 41-41v-1zm-42 42c0 23.176 18.824 42 42 42v-1c-22.624 0-41-18.376-41-41h-1z"/><path fill="#B2B2B2" d="M16.3 31.2l-.1 1.6c-.4-.1-.7-.3-1-.3-.3-.1-.6-.1-.9-.1-.5 0-.9.1-1.2.3-.3.2-.4.5-.4.9 0 .3.1.6.3.8.2.2.6.6 1.4 1l.2.1c1.5 1 2.3 2 2.3 3.1 0 1-.3 1.8-1 2.4-.6.6-1.5.9-2.5.9-.4 0-.9 0-1.3-.1s-.8-.2-1.2-.4l.1-1.7c.4.2.8.4 1.1.5.4.1.7.2 1.1.2.5 0 .9-.1 1.2-.4.3-.3.4-.6.4-1 0-.7-.6-1.3-1.7-2-.2-.1-.3-.2-.4-.2-.8-.5-1.4-1-1.7-1.4-.3-.4-.4-1-.4-1.6 0-.9.3-1.6.9-2.2.6-.5 1.5-.8 2.5-.8.3 0 .7 0 1.1.1.5.1.9.2 1.2.3zm.8-.2h6.8v1.6h-2.4v9.2h-2v-9.2h-2.4V31zm7.4 0h2.2l2 4.8 2-4.8h2.1l-3.2 6.5v4.3h-2v-4.4L24.5 31zm9.2 0h1.9v9.2h3.5v1.6h-5.5V31h.1zm6.7 0H46v1.5h-3.6v3h3.4V37h-3.4v3.3h3.8v1.5h-5.7V31h-.1zM15.7 45.2l-.1 1.4-.9-.3c-.3-.1-.5-.1-.8-.1-.4 0-.8.1-1 .3-.2.2-.4.5-.4.8 0 .3.1.5.3.7.2.2.6.5 1.2.9l.1.1c1.3.8 2 1.8 2 2.8 0 .8-.3 1.5-.9 2.1-.6.5-1.3.8-2.2.8-.4 0-.8 0-1.1-.1-.4-.1-.7-.2-1-.3l.1-1.5c.3.2.7.3 1 .4.3.1.6.1 1 .1s.8-.1 1.1-.3c.3-.2.4-.5.4-.9 0-.6-.5-1.2-1.4-1.8-.1-.1-.2-.2-.3-.2-.7-.5-1.2-.9-1.5-1.3-.3-.4-.4-.8-.4-1.4 0-.8.3-1.4.8-1.9s1.3-.7 2.2-.7c.3 0 .6 0 .9.1l.9.3zm1.3-.1h5.9v1.4h-2.1v8.1h-1.7v-8.1H17v-1.4zm10.5 1.1c-.6 0-1.1.3-1.4.9-.3.6-.5 1.5-.5 2.6 0 1.2.2 2 .5 2.6.3.6.8.9 1.4.9.6 0 1.1-.3 1.4-.9.3-.6.5-1.5.5-2.6 0-1.2-.2-2-.5-2.6-.3-.6-.8-.9-1.4-.9zm0-1.3c1.2 0 2.1.4 2.8 1.3.7.9 1 2 1 3.6 0 1.5-.3 2.7-1 3.6-.7.8-1.6 1.3-2.8 1.3-1.2 0-2.1-.4-2.8-1.3-.7-.8-1-2-1-3.6 0-1.5.3-2.7 1-3.6.7-.9 1.6-1.3 2.8-1.3zm5.3.2h2l3.2 7.3v-7.3h1.5v9.4h-2l-3.2-7.3v7.3h-1.5v-9.4zm8.7 0h4.9v1.3h-3.2V49h3v1.3h-3v2.9h3.3v1.3h-5v-9.4z"/><path fill="#A0D200" d="M49.7 30.8H54v23.7h-4.3V30.8zm8.3 0h4.9L71 49.1V30.8h3.7v23.7h-5l-8-18.3v18.3H58V30.8z"/></svg>